<?xml version="1.0" encoding="UTF-8" standalone="no"?>
<svg
   xmlns:dc="http://purl.org/dc/elements/1.1/"
   xmlns:cc="http://creativecommons.org/ns#"
   xmlns:rdf="http://www.w3.org/1999/02/22-rdf-syntax-ns#"
   xmlns:svg="http://www.w3.org/2000/svg"
   xmlns="http://www.w3.org/2000/svg"
   xmlns:sodipodi="http://sodipodi.sourceforge.net/DTD/sodipodi-0.dtd"
   xmlns:inkscape="http://www.inkscape.org/namespaces/inkscape"
   width="205"
   height="22"
   viewBox="0 0 205 22"
   fill="none"
   version="1.1"
   id="svg26"
   sodipodi:docname="logo2.svg"
   inkscape:version="1.0.1 (3bc2e813f5, 2020-09-07)">
  <metadata
     id="metadata32">
    <rdf:RDF>
      <cc:Work
         rdf:about="">
        <dc:format>image/svg+xml</dc:format>
        <dc:type
           rdf:resource="http://purl.org/dc/dcmitype/StillImage" />
        <dc:title></dc:title>
      </cc:Work>
    </rdf:RDF>
  </metadata>
  <defs
     id="defs30" />
  <sodipodi:namedview
     pagecolor="#ffffff"
     bordercolor="#666666"
     borderopacity="1"
     objecttolerance="10"
     gridtolerance="10"
     guidetolerance="10"
     inkscape:pageopacity="0"
     inkscape:pageshadow="2"
     inkscape:window-width="1350"
     inkscape:window-height="622"
     id="namedview28"
     showgrid="false"
     inkscape:zoom="4.1707317"
     inkscape:cx="102.5"
     inkscape:cy="20.590643"
     inkscape:window-x="0"
     inkscape:window-y="0"
     inkscape:window-maximized="0"
     inkscape:current-layer="svg26" />
  <path
     d="M123.631 0.587999V18H120.007V10.5H112.339V18H108.715V0.587999H112.339V7.98H120.007V0.587999H123.631ZM139.226 5.436C140.154 5.436 140.998 5.584 141.758 5.88C142.518 6.176 143.17 6.6 143.714 7.152C144.258 7.696 144.678 8.36 144.974 9.144C145.27 9.928 145.418 10.812 145.418 11.796C145.418 12.78 145.27 13.668 144.974 14.46C144.678 15.244 144.258 15.912 143.714 16.464C143.17 17.016 142.518 17.44 141.758 17.736C140.998 18.032 140.154 18.18 139.226 18.18C138.29 18.18 137.438 18.032 136.67 17.736C135.91 17.44 135.258 17.016 134.714 16.464C134.17 15.912 133.746 15.244 133.442 14.46C133.146 13.668 132.998 12.78 132.998 11.796C132.998 10.812 133.146 9.928 133.442 9.144C133.746 8.36 134.17 7.696 134.714 7.152C135.258 6.6 135.91 6.176 136.67 5.88C137.438 5.584 138.29 5.436 139.226 5.436ZM139.226 15.696C140.17 15.696 140.87 15.372 141.326 14.724C141.782 14.068 142.01 13.096 142.01 11.808C142.01 10.528 141.782 9.564 141.326 8.916C140.87 8.26 140.17 7.932 139.226 7.932C138.258 7.932 137.546 8.26 137.09 8.916C136.634 9.564 136.406 10.528 136.406 11.808C136.406 13.096 136.634 14.068 137.09 14.724C137.546 15.372 138.258 15.696 139.226 15.696ZM165.558 5.628V18H163.518C163.094 18 162.822 17.808 162.702 17.424L162.486 16.56C162.238 16.8 161.982 17.02 161.718 17.22C161.454 17.42 161.17 17.592 160.866 17.736C160.57 17.88 160.246 17.992 159.894 18.072C159.55 18.152 159.174 18.192 158.766 18.192C158.094 18.192 157.494 18.076 156.966 17.844C156.446 17.612 156.01 17.288 155.658 16.872C155.306 16.456 155.038 15.96 154.854 15.384C154.67 14.808 154.578 14.176 154.578 13.488V5.628H157.89V13.488C157.89 14.176 158.046 14.712 158.358 15.096C158.678 15.472 159.15 15.66 159.774 15.66C160.238 15.66 160.674 15.56 161.082 15.36C161.49 15.152 161.878 14.872 162.246 14.52V5.628H165.558ZM183.183 8.172C183.095 8.308 183.003 8.408 182.907 8.472C182.819 8.528 182.695 8.556 182.535 8.556C182.375 8.556 182.211 8.516 182.043 8.436C181.875 8.356 181.687 8.272 181.479 8.184C181.271 8.088 181.031 8 180.759 7.92C180.495 7.84 180.187 7.8 179.835 7.8C179.299 7.8 178.883 7.912 178.587 8.136C178.291 8.352 178.143 8.64 178.143 9C178.143 9.248 178.227 9.456 178.395 9.624C178.563 9.792 178.783 9.94 179.055 10.068C179.335 10.188 179.651 10.304 180.003 10.416C180.355 10.52 180.715 10.636 181.083 10.764C181.459 10.892 181.823 11.04 182.175 11.208C182.527 11.376 182.839 11.588 183.111 11.844C183.391 12.092 183.615 12.396 183.783 12.756C183.951 13.108 184.035 13.536 184.035 14.04C184.035 14.64 183.923 15.196 183.699 15.708C183.483 16.212 183.163 16.648 182.739 17.016C182.315 17.384 181.787 17.672 181.155 17.88C180.523 18.088 179.795 18.192 178.971 18.192C178.547 18.192 178.127 18.152 177.711 18.072C177.295 18 176.899 17.896 176.523 17.76C176.147 17.616 175.795 17.452 175.467 17.268C175.139 17.084 174.855 16.884 174.615 16.668L175.383 15.432C175.471 15.288 175.579 15.176 175.707 15.096C175.843 15.016 176.015 14.976 176.223 14.976C176.423 14.976 176.607 15.028 176.775 15.132C176.943 15.228 177.131 15.336 177.339 15.456C177.547 15.568 177.791 15.676 178.071 15.78C178.359 15.876 178.715 15.924 179.139 15.924C179.459 15.924 179.735 15.888 179.967 15.816C180.199 15.744 180.387 15.648 180.531 15.528C180.675 15.4 180.779 15.26 180.843 15.108C180.915 14.948 180.951 14.784 180.951 14.616C180.951 14.344 180.863 14.124 180.687 13.956C180.519 13.78 180.295 13.628 180.015 13.5C179.743 13.372 179.427 13.256 179.067 13.152C178.707 13.048 178.339 12.932 177.963 12.804C177.595 12.676 177.231 12.524 176.871 12.348C176.519 12.172 176.203 11.952 175.923 11.688C175.651 11.416 175.427 11.084 175.251 10.692C175.083 10.3 174.999 9.824 174.999 9.264C174.999 8.752 175.099 8.268 175.299 7.812C175.499 7.348 175.799 6.94 176.199 6.588C176.599 6.236 177.095 5.956 177.687 5.748C178.287 5.54 178.979 5.436 179.763 5.436C180.643 5.436 181.443 5.58 182.163 5.868C182.883 6.156 183.475 6.532 183.939 6.996L183.183 8.172ZM201.157 10.356C201.157 10.012 201.109 9.684 201.013 9.372C200.925 9.06 200.781 8.784 200.581 8.544C200.381 8.304 200.129 8.116 199.825 7.98C199.521 7.836 199.157 7.764 198.733 7.764C197.941 7.764 197.321 7.988 196.873 8.436C196.425 8.884 196.133 9.524 195.997 10.356H201.157ZM195.949 12.324C196.053 13.484 196.381 14.332 196.933 14.868C197.493 15.404 198.221 15.672 199.117 15.672C199.573 15.672 199.965 15.62 200.293 15.516C200.629 15.404 200.921 15.284 201.169 15.156C201.425 15.02 201.653 14.9 201.853 14.796C202.061 14.684 202.265 14.628 202.465 14.628C202.721 14.628 202.921 14.724 203.065 14.916L204.025 16.116C203.673 16.524 203.285 16.864 202.861 17.136C202.437 17.4 201.997 17.612 201.541 17.772C201.085 17.924 200.625 18.028 200.161 18.084C199.697 18.148 199.249 18.18 198.817 18.18C197.953 18.18 197.145 18.04 196.393 17.76C195.649 17.472 194.997 17.052 194.437 16.5C193.885 15.94 193.449 15.248 193.129 14.424C192.809 13.6 192.649 12.644 192.649 11.556C192.649 10.716 192.785 9.924 193.057 9.18C193.337 8.436 193.737 7.788 194.257 7.236C194.777 6.684 195.409 6.248 196.153 5.928C196.897 5.6 197.737 5.436 198.673 5.436C199.465 5.436 200.193 5.564 200.857 5.82C201.529 6.068 202.105 6.432 202.585 6.912C203.073 7.392 203.449 7.984 203.713 8.688C203.985 9.384 204.121 10.18 204.121 11.076C204.121 11.324 204.109 11.528 204.085 11.688C204.061 11.848 204.021 11.976 203.965 12.072C203.909 12.168 203.833 12.236 203.737 12.276C203.641 12.308 203.517 12.324 203.365 12.324H195.949Z"
     fill="#F09D51"
     id="path24" />
  <text
     xml:space="preserve"
     style="font-style:normal;font-weight:normal;font-size:27.2677px;line-height:1.25;font-family:sans-serif;fill:#000000;fill-opacity:1;stroke:none;stroke-width:0.681693"
     x="1.4041226"
     y="22.928061"
     id="text36"
     transform="scale(1.2721061,0.78609793)"><tspan
       sodipodi:role="line"
       id="tspan34"
       x="1.4041226"
       y="22.928061"
       style="stroke-width:0.681693">Shoes</tspan></text>
</svg>
